<?xml version="1.0" encoding="UTF-8" standalone="no"?>
<!DOCTYPE svg PUBLIC "-//W3C//DTD SVG 1.1//EN" "http://www.w3.org/Graphics/SVG/1.1/DTD/svg11.dtd">
<svg width="100%" height="100%" viewBox="0 0 300 300" version="1.1" xmlns="http://www.w3.org/2000/svg" xmlns:xlink="http://www.w3.org/1999/xlink" xml:space="preserve" xmlns:serif="http://www.serif.com/" style="fill-rule:evenodd;clip-rule:evenodd;stroke-linejoin:round;stroke-miterlimit:1.41421;">
    <g transform="matrix(3.0251,0,0,3.0251,250.665,82.7014)">
        <path d="M0,44.239C0.417,42.118 0.638,39.927 0.638,37.686C0.638,32.078 -0.732,26.784 -3.152,22.119C-0.732,17.455 0.638,12.161 0.638,6.553C0.638,4.311 0.417,2.121 0,0C6.483,5.2 10.645,13.181 10.645,22.119C10.645,31.058 6.483,39.038 0,44.239M-33.275,66.039C-42.214,66.039 -50.194,61.877 -55.395,55.394C-53.274,55.811 -51.083,56.032 -48.842,56.032C-43.233,56.032 -37.94,54.662 -33.275,52.242C-28.61,54.662 -23.317,56.032 -17.708,56.032C-15.467,56.032 -13.276,55.811 -11.155,55.394C-16.356,61.877 -24.336,66.039 -33.275,66.039M-77.195,22.119C-77.195,13.181 -73.033,5.2 -66.55,0C-66.967,2.121 -67.188,4.311 -67.188,6.553C-67.188,12.161 -65.818,17.455 -63.398,22.119C-65.818,26.784 -67.188,32.078 -67.188,37.686C-67.188,39.927 -66.967,42.118 -66.55,44.239C-73.033,39.038 -77.195,31.058 -77.195,22.119M-15.567,28.672C-15.15,26.551 -14.929,24.361 -14.929,22.119C-14.929,19.878 -15.15,17.687 -15.566,15.566C-13.251,17.424 -11.233,19.635 -9.594,22.119C-11.233,24.604 -13.251,26.815 -15.567,28.672M-39.828,39.828C-37.707,40.245 -35.516,40.466 -33.275,40.466C-31.034,40.466 -28.843,40.245 -26.722,39.828C-28.579,42.143 -30.79,44.162 -33.275,45.8C-35.76,44.162 -37.971,42.143 -39.828,39.828M-50.983,15.566C-51.4,17.687 -51.621,19.878 -51.621,22.119C-51.621,24.361 -51.4,26.551 -50.983,28.672C-53.299,26.815 -55.317,24.604 -56.956,22.119C-55.317,19.635 -53.299,17.424 -50.983,15.566M-20.488,22.119C-20.488,25.9 -21.238,29.507 -22.587,32.808C-25.888,34.157 -29.495,34.906 -33.275,34.906C-37.055,34.906 -40.662,34.157 -43.963,32.808C-45.312,29.507 -46.062,25.9 -46.062,22.119C-46.062,18.339 -45.312,14.732 -43.963,11.431C-40.662,10.082 -37.055,9.333 -33.275,9.333C-29.495,9.333 -25.888,10.082 -22.587,11.431C-21.238,14.732 -20.488,18.339 -20.488,22.119M-26.722,4.411C-28.843,3.994 -31.034,3.773 -33.275,3.773C-35.516,3.773 -37.707,3.994 -39.828,4.411C-37.971,2.095 -35.76,0.077 -33.275,-1.562C-30.79,0.077 -28.579,2.095 -26.722,4.411M-61.628,6.553C-61.628,2.772 -60.879,-0.835 -59.53,-4.136C-56.229,-5.484 -52.622,-6.234 -48.842,-6.234C-45.315,-6.234 -41.939,-5.581 -38.821,-4.4C-42.734,-1.278 -45.943,2.69 -48.17,7.225C-52.704,9.451 -56.672,12.66 -59.794,16.573C-60.976,13.456 -61.628,10.08 -61.628,6.553M-61.628,37.686C-61.628,34.159 -60.976,30.783 -59.794,27.666C-56.672,31.579 -52.704,34.788 -48.17,37.014C-45.943,41.549 -42.734,45.516 -38.821,48.638C-41.939,49.82 -45.315,50.473 -48.842,50.473C-52.622,50.473 -56.229,49.723 -59.53,48.374C-60.879,45.073 -61.628,41.466 -61.628,37.686M-4.922,37.686C-4.922,41.466 -5.671,45.073 -7.02,48.374C-10.321,49.723 -13.928,50.473 -17.708,50.473C-21.235,50.473 -24.611,49.82 -27.729,48.638C-23.816,45.516 -20.607,41.549 -18.38,37.014C-13.846,34.788 -9.878,31.579 -6.756,27.666C-5.574,30.783 -4.922,34.159 -4.922,37.686M-4.922,6.553C-4.922,10.08 -5.574,13.456 -6.756,16.573C-9.878,12.66 -13.846,9.451 -18.38,7.225C-20.607,2.69 -23.816,-1.278 -27.729,-4.4C-24.611,-5.581 -21.235,-6.234 -17.708,-6.234C-13.928,-6.234 -10.321,-5.484 -7.02,-4.136C-5.671,-0.835 -4.922,2.772 -4.922,6.553M-33.275,-21.8C-24.336,-21.8 -16.356,-17.639 -11.155,-11.156C-13.276,-11.573 -15.467,-11.793 -17.708,-11.793C-23.317,-11.793 -28.61,-10.424 -33.275,-8.003C-37.94,-10.424 -43.233,-11.793 -48.842,-11.793C-51.083,-11.793 -53.274,-11.573 -55.395,-11.156C-50.194,-17.639 -42.214,-21.8 -33.275,-21.8M16.204,22.119C16.204,8.761 8.439,-2.817 -2.814,-8.342C-8.338,-19.595 -19.916,-27.36 -33.275,-27.36C-46.634,-27.36 -58.212,-19.595 -63.736,-8.342C-74.989,-2.817 -82.754,8.761 -82.754,22.119C-82.754,35.478 -74.989,47.056 -63.736,52.581C-58.212,63.833 -46.634,71.599 -33.275,71.599C-19.916,71.599 -8.338,63.833 -2.814,52.581C8.439,47.056 16.204,35.478 16.204,22.119" style="fill:white;fill-rule:nonzero;"/>
    </g>
</svg>
